<svg width="193" height="24" viewBox="0 0 193 24" fill="none" xmlns="http://www.w3.org/2000/svg">
<path d="M11.73 23.48C8.57 23.48 5.95 22.43 3.87 20.33C1.79 18.23 0.75 15.62 0.75 12.5C0.75 9.38 1.79 6.77 3.87 4.67C5.95 2.57 8.57 1.52 11.73 1.52C13.67 1.52 15.46 1.98 17.1 2.9C18.74 3.82 20.02 5.06 20.94 6.62L15.72 9.62C15.38 8.94 14.85 8.4 14.13 8C13.41 7.6 12.61 7.4 11.73 7.4C10.25 7.4 9.05 7.88 8.13 8.84C7.21 9.8 6.75 11.02 6.75 12.5C6.75 13.98 7.21 15.2 8.13 16.16C9.05 17.12 10.25 17.6 11.73 17.6C12.63 17.6 13.43 17.4 14.13 17C14.85 16.6 15.38 16.05 15.72 15.35L20.94 18.35C20.02 19.93 18.74 21.18 17.1 22.1C15.46 23.02 13.67 23.48 11.73 23.48ZM32.8167 8H38.3667V23H32.8167V21.65C31.8567 22.83 30.5167 23.42 28.7967 23.42C26.7767 23.42 25.1267 22.67 23.8467 21.17C22.5667 19.67 21.9267 17.78 21.9267 15.5C21.9267 13.22 22.5667 11.33 23.8467 9.83C25.1267 8.33 26.7767 7.58 28.7967 7.58C30.5167 7.58 31.8567 8.17 32.8167 9.35V8ZM28.1967 17.51C28.6967 18.05 29.3467 18.32 30.1467 18.32C30.9467 18.32 31.5867 18.05 32.0667 17.51C32.5667 16.97 32.8167 16.3 32.8167 15.5C32.8167 14.7 32.5667 14.03 32.0667 13.49C31.5867 12.95 30.9467 12.68 30.1467 12.68C29.3467 12.68 28.6967 12.95 28.1967 13.49C27.7167 14.03 27.4767 14.7 27.4767 15.5C27.4767 16.3 27.7167 16.97 28.1967 17.51ZM46.3301 10.91C46.6101 9.89 47.1601 9.1 47.9801 8.54C48.8001 7.98 49.7501 7.7 50.8301 7.7V13.7C49.6301 13.54 48.5801 13.78 47.6801 14.42C46.7801 15.04 46.3301 16.04 46.3301 17.42V23H40.7801V8H46.3301V10.91ZM58.0195 10.91C58.2995 9.89 58.8495 9.1 59.6695 8.54C60.4895 7.98 61.4395 7.7 62.5195 7.7V13.7C61.3195 13.54 60.2695 13.78 59.3695 14.42C58.4695 15.04 58.0195 16.04 58.0195 17.42V23H52.4695V8H58.0195V10.91ZM66.949 6.86C66.109 6.86 65.379 6.56 64.759 5.96C64.159 5.34 63.859 4.62 63.859 3.8C63.859 2.98 64.159 2.27 64.759 1.67C65.379 1.05 66.109 0.739999 66.949 0.739999C67.769 0.739999 68.479 1.05 69.079 1.67C69.699 2.27 70.009 2.98 70.009 3.8C70.009 4.62 69.699 5.34 69.079 5.96C68.479 6.56 67.769 6.86 66.949 6.86ZM64.159 23V8H69.709V23H64.159ZM76.9898 17.39C77.4698 18.39 78.4898 18.89 80.0498 18.89C80.9698 18.89 81.8198 18.57 82.5998 17.93L86.2298 20.99C84.7298 22.61 82.6098 23.42 79.8698 23.42C77.3098 23.42 75.2498 22.68 73.6898 21.2C72.1498 19.7 71.3798 17.82 71.3798 15.56C71.3798 13.28 72.1298 11.38 73.6298 9.86C75.1498 8.34 77.0598 7.58 79.3598 7.58C81.6398 7.58 83.5098 8.33 84.9698 9.83C86.4498 11.31 87.1898 13.18 87.1898 15.44C87.1898 16.1 87.1098 16.75 86.9498 17.39H76.9898ZM76.8998 13.82H81.9398C81.5998 12.62 80.7898 12.02 79.5098 12.02C78.2098 12.02 77.3398 12.62 76.8998 13.82ZM94.377 10.91C94.657 9.89 95.207 9.1 96.027 8.54C96.847 7.98 97.797 7.7 98.877 7.7V13.7C97.677 13.54 96.627 13.78 95.727 14.42C94.827 15.04 94.377 16.04 94.377 17.42V23H88.827V8H94.377V10.91Z" fill="#535455"/>
<path d="M129.316 2V23H125.206V9.38L119.296 19.13H118.816L112.906 9.41V23H108.766V2H113.026L119.056 11.93L125.056 2H129.316ZM144.449 8H148.319V23H144.449V21.23C143.289 22.69 141.659 23.42 139.559 23.42C137.559 23.42 135.839 22.66 134.399 21.14C132.979 19.6 132.269 17.72 132.269 15.5C132.269 13.28 132.979 11.41 134.399 9.89C135.839 8.35 137.559 7.58 139.559 7.58C141.659 7.58 143.289 8.31 144.449 9.77V8ZM137.309 18.56C138.089 19.34 139.079 19.73 140.279 19.73C141.479 19.73 142.469 19.34 143.249 18.56C144.049 17.76 144.449 16.74 144.449 15.5C144.449 14.26 144.049 13.25 143.249 12.47C142.469 11.67 141.479 11.27 140.279 11.27C139.079 11.27 138.089 11.67 137.309 12.47C136.529 13.25 136.139 14.26 136.139 15.5C136.139 16.74 136.529 17.76 137.309 18.56ZM165.659 23H161.159L155.699 16.19V23H151.829V2H155.699V14.6L160.859 8H165.479L159.449 15.41L165.659 23ZM169.776 17.09C170.296 18.97 171.706 19.91 174.006 19.91C175.486 19.91 176.606 19.41 177.366 18.41L180.486 20.21C179.006 22.35 176.826 23.42 173.946 23.42C171.466 23.42 169.476 22.67 167.976 21.17C166.476 19.67 165.726 17.78 165.726 15.5C165.726 13.24 166.466 11.36 167.946 9.86C169.426 8.34 171.326 7.58 173.646 7.58C175.846 7.58 177.656 8.34 179.076 9.86C180.516 11.38 181.236 13.26 181.236 15.5C181.236 16 181.186 16.53 181.086 17.09H169.776ZM169.716 14.09H177.366C177.146 13.07 176.686 12.31 175.986 11.81C175.306 11.31 174.526 11.06 173.646 11.06C172.606 11.06 171.746 11.33 171.066 11.87C170.386 12.39 169.936 13.13 169.716 14.09ZM187.808 10.58C188.168 9.62 188.758 8.9 189.578 8.42C190.418 7.94 191.348 7.7 192.368 7.7V12.02C191.188 11.88 190.128 12.12 189.188 12.74C188.268 13.36 187.808 14.39 187.808 15.83V23H183.938V8H187.808V10.58Z" fill="#4DEE9B"/>
</svg>
