<svg width="387" height="490" viewBox="0 0 387 490" fill="none" xmlns="http://www.w3.org/2000/svg">
<g clip-path="url(#clip0)">
<path d="M343.253 78.8141C372.093 114.483 390.746 153.612 386.361 188.466C382.08 223.216 354.783 253.789 325.927 296.179C297.087 338.674 266.517 393.095 222.489 406.647C178.361 420.198 120.78 392.991 75.43 350.496C30.0794 308.001 -3.041 250.423 0.220363 196.008C3.48172 141.592 43.0257 90.4321 88.3652 54.7683C133.705 19.1044 184.884 -1.10174 230.031 4.95791C275.177 11.0176 314.308 43.1503 343.253 78.8141Z" fill="#F2F2F2"/>
<path fill-rule="evenodd" clip-rule="evenodd" d="M184.449 238.783C214.198 238.783 230.174 258.659 233.143 278.843C236.162 299.49 232.719 316.584 233.578 341.544C234.162 358.351 241.561 369.578 246.304 384.562C251.048 399.546 124.455 403.325 125.21 389.311C125.964 375.296 135.021 360.94 135.346 343.483C135.677 325.684 133.143 315.003 133.49 286.049C133.749 263.193 154.689 238.783 184.449 238.783Z" fill="black"/>
<path fill-rule="evenodd" clip-rule="evenodd" d="M62.3019 489.339C61.1615 475.27 67.4363 425.096 86.8337 387.63C159.283 347.51 250.183 366.62 286.124 387.63C298.293 399.992 307.091 482.117 304.43 488.011" fill="#FFD98E"/>
<path d="M104.121 488.011C105.261 478.883 107.068 464.175 110.016 450.552" stroke="#FF8364" stroke-width="5.73" stroke-linecap="round" stroke-linejoin="round"/>
<path d="M264.804 488.011C263.663 478.883 261.856 464.175 258.909 450.552" stroke="#FF8364" stroke-width="5.73" stroke-linecap="round" stroke-linejoin="round"/>
<path fill-rule="evenodd" clip-rule="evenodd" d="M138.465 303.93C138.463 302.337 138.935 300.779 139.819 299.453C140.703 298.127 141.961 297.093 143.432 296.482C144.904 295.871 146.524 295.709 148.087 296.018C149.651 296.327 151.087 297.093 152.216 298.218C153.344 299.343 154.113 300.778 154.427 302.34C154.74 303.903 154.583 305.523 153.976 306.996C153.368 308.469 152.338 309.73 151.015 310.617C149.691 311.505 148.134 311.981 146.541 311.984C145.481 311.986 144.432 311.78 143.453 311.376C142.473 310.972 141.583 310.379 140.833 309.631C140.083 308.883 139.488 307.995 139.081 307.016C138.675 306.038 138.465 304.989 138.465 303.93Z" fill="#D18C65"/>
<path fill-rule="evenodd" clip-rule="evenodd" d="M212.374 303.93C212.373 302.336 212.845 300.777 213.73 299.451C214.615 298.125 215.873 297.091 217.346 296.48C218.818 295.869 220.439 295.709 222.003 296.019C223.567 296.33 225.003 297.097 226.131 298.224C227.259 299.351 228.027 300.787 228.338 302.35C228.65 303.914 228.49 305.535 227.881 307.007C227.271 308.48 226.238 309.739 224.912 310.625C223.587 311.511 222.028 311.984 220.434 311.984C218.297 311.984 216.248 311.136 214.737 309.625C213.225 308.115 212.375 306.067 212.374 303.93Z" fill="#D18C65"/>
<path fill-rule="evenodd" clip-rule="evenodd" d="M216.544 165.192C208.413 158.851 206.408 165.935 205.135 170.15C203.863 174.364 203.956 181.795 210.33 181.635C215.916 186.643 221.117 180.159 222.715 176.865C224.312 173.57 228.235 166.426 216.544 165.192Z" fill="#FF8364"/>
<path d="M221.921 160.674C219.117 161.661 217.542 163.005 216.649 165.34" stroke="#FFD98E" stroke-width="2.83" stroke-linecap="round" stroke-linejoin="round"/>
<path fill-rule="evenodd" clip-rule="evenodd" d="M163.52 202.822C163.519 200.955 164.071 199.13 165.107 197.577C166.143 196.024 167.616 194.813 169.34 194.097C171.064 193.381 172.961 193.192 174.793 193.554C176.624 193.916 178.307 194.812 179.629 196.13C180.951 197.448 181.853 199.129 182.22 200.959C182.587 202.789 182.404 204.687 181.693 206.413C180.982 208.139 179.775 209.616 178.225 210.656C176.675 211.697 174.851 212.254 172.984 212.259C171.743 212.261 170.513 212.02 169.365 211.547C168.218 211.074 167.174 210.379 166.295 209.503C165.416 208.626 164.718 207.585 164.242 206.439C163.766 205.292 163.52 204.063 163.52 202.822Z" fill="#6BD5E1"/>
<path fill-rule="evenodd" clip-rule="evenodd" d="M98.1328 206.987L124.284 200.349L134.878 242.094L108.732 248.705L98.1328 206.987Z" fill="#DFDFDF"/>
<path fill-rule="evenodd" clip-rule="evenodd" d="M103.642 211.587L121.634 207.02L123.023 212.49L105.03 217.046L103.642 211.587Z" fill="#FF8364"/>
<path d="M106.54 222.995L124.532 218.428" stroke="#6BD5E1" stroke-width="3.11" stroke-linecap="round" stroke-linejoin="round"/>
<path d="M108.049 228.934L126.047 224.367" stroke="#6BD5E1" stroke-width="3.11" stroke-linecap="round" stroke-linejoin="round"/>
<path d="M109.63 235.131L127.639 230.559" stroke="#6BD5E1" stroke-width="3.11" stroke-linecap="round" stroke-linejoin="round"/>
<path d="M111.14 241.119L118.202 239.323" stroke="#6BD5E1" stroke-width="3.11" stroke-linecap="round" stroke-linejoin="round"/>
<path d="M126.317 237.263L129.149 236.547" stroke="#6BD5E1" stroke-width="3.11" stroke-linecap="round" stroke-linejoin="round"/>
<path fill-rule="evenodd" clip-rule="evenodd" d="M80.7958 112.203L148.469 79.9819L169.618 124.388L101.945 156.614L80.7958 112.203Z" fill="#DFDFDF"/>
<path d="M104.198 146.792L110.93 127.087L123.474 129.456L128.4 105.157L140.519 107.173L144.045 90.0299" stroke="#FF8364" stroke-width="3.11" stroke-linecap="round" stroke-linejoin="round"/>
<path fill-rule="evenodd" clip-rule="evenodd" d="M108.556 128.354C108.261 127.732 108.157 127.035 108.257 126.354C108.357 125.672 108.657 125.035 109.119 124.523C109.581 124.012 110.185 123.649 110.853 123.48C111.521 123.311 112.224 123.344 112.874 123.575C113.523 123.805 114.09 124.223 114.502 124.776C114.914 125.328 115.153 125.99 115.19 126.678C115.226 127.367 115.057 128.05 114.705 128.643C114.353 129.235 113.833 129.71 113.211 130.007C112.797 130.205 112.348 130.319 111.89 130.343C111.431 130.367 110.973 130.301 110.54 130.147C110.108 129.994 109.71 129.756 109.369 129.449C109.029 129.141 108.752 128.769 108.556 128.354Z" fill="#FFD98E"/>
<path fill-rule="evenodd" clip-rule="evenodd" d="M125.414 107.212C125.117 106.588 125.012 105.89 125.111 105.207C125.211 104.523 125.511 103.885 125.974 103.372C126.436 102.859 127.041 102.495 127.71 102.325C128.38 102.156 129.085 102.189 129.736 102.42C130.387 102.651 130.955 103.07 131.368 103.623C131.781 104.177 132.02 104.841 132.056 105.531C132.091 106.221 131.921 106.906 131.568 107.499C131.214 108.092 130.692 108.567 130.069 108.864C129.655 109.062 129.206 109.177 128.747 109.201C128.289 109.225 127.831 109.158 127.398 109.004C126.966 108.851 126.568 108.613 126.227 108.306C125.887 107.998 125.61 107.626 125.414 107.212Z" fill="#FFD98E"/>
<path fill-rule="evenodd" clip-rule="evenodd" d="M253.604 144.66C253.604 142.295 254.305 139.983 255.62 138.017C256.935 136.051 258.803 134.518 260.989 133.614C263.174 132.71 265.579 132.475 267.899 132.938C270.218 133.401 272.348 134.541 274.019 136.215C275.69 137.889 276.827 140.022 277.286 142.342C277.745 144.662 277.505 147.066 276.597 149.25C275.689 151.434 274.153 153.3 272.184 154.611C270.215 155.921 267.902 156.619 265.536 156.614C262.369 156.61 259.333 155.349 257.096 153.107C254.858 150.866 253.602 147.827 253.604 144.66Z" fill="#FFD98E"/>
<path d="M285.738 142.573C286.312 144.617 286.406 146.766 286.012 148.852C285.618 150.939 284.747 152.906 283.467 154.6C282.187 156.294 280.532 157.669 278.632 158.617C276.733 159.566 274.64 160.063 272.516 160.068C271.616 160.07 270.717 159.983 269.833 159.81" stroke="#FF8364" stroke-width="3.11" stroke-linecap="round" stroke-linejoin="round"/>
<path fill-rule="evenodd" clip-rule="evenodd" d="M258.309 153.739L253.725 161.958L272.649 164.999L270.577 155.425" fill="#FFD98E"/>
<path fill-rule="evenodd" clip-rule="evenodd" d="M262.738 144.66C262.738 144.103 262.903 143.557 263.213 143.093C263.523 142.63 263.964 142.268 264.479 142.055C264.994 141.841 265.562 141.785 266.109 141.894C266.656 142.003 267.158 142.272 267.553 142.666C267.947 143.061 268.216 143.563 268.325 144.11C268.434 144.657 268.378 145.224 268.164 145.74C267.951 146.255 267.589 146.696 267.125 147.006C266.662 147.316 266.116 147.481 265.558 147.481C264.81 147.481 264.093 147.184 263.564 146.655C263.035 146.126 262.738 145.408 262.738 144.66Z" fill="#1B3C87"/>
<path fill-rule="evenodd" clip-rule="evenodd" d="M282.157 141.84C282.157 141.282 282.323 140.737 282.633 140.273C282.943 139.809 283.383 139.448 283.898 139.234C284.414 139.021 284.981 138.965 285.528 139.074C286.075 139.182 286.578 139.451 286.972 139.846C287.367 140.24 287.636 140.743 287.744 141.29C287.853 141.837 287.797 142.404 287.584 142.919C287.37 143.435 287.009 143.875 286.545 144.185C286.081 144.495 285.536 144.66 284.978 144.66C284.23 144.659 283.514 144.361 282.985 143.833C282.456 143.304 282.159 142.588 282.157 141.84Z" fill="#FFD98E"/>
<path fill-rule="evenodd" clip-rule="evenodd" d="M55.5919 54.7958L73.2704 59.5719L55.8618 124.025L38.1833 119.265L55.5919 54.7958Z" fill="#FF8364"/>
<path d="M43.8025 98.4583L53.537 101.092" stroke="#FFD98E" stroke-width="4.23" stroke-linecap="round" stroke-linejoin="round"/>
<path d="M40.7119 109.895L50.4519 112.522" stroke="#FFD98E" stroke-width="4.23" stroke-linecap="round" stroke-linejoin="round"/>
<path d="M46.8876 87.0386L56.6276 89.6718" stroke="#FFD98E" stroke-width="4.23" stroke-linecap="round" stroke-linejoin="round"/>
<path d="M49.9781 75.5969L59.7127 78.2246" stroke="#FFD98E" stroke-width="4.23" stroke-linecap="round" stroke-linejoin="round"/>
<path d="M53.0632 64.1662L62.8032 66.7939" stroke="#FFD98E" stroke-width="4.23" stroke-linecap="round" stroke-linejoin="round"/>
<path fill-rule="evenodd" clip-rule="evenodd" d="M237.677 41.4315L304.43 57.5447L293.412 103.058L226.687 86.9395L237.677 41.4315Z" fill="#DFDFDF"/>
<path fill-rule="evenodd" clip-rule="evenodd" d="M277.601 90.7736C277.935 89.3904 278.672 88.1373 279.718 87.1727C280.764 86.2081 282.073 85.5754 283.479 85.3546C284.884 85.1338 286.324 85.3348 287.616 85.9322C288.907 86.5295 289.993 87.4965 290.735 88.7107C291.476 89.9249 291.842 91.3318 291.784 92.7536C291.726 94.1754 291.248 95.5481 290.41 96.6982C289.572 97.8483 288.412 98.7241 287.077 99.2149C285.741 99.7057 284.29 99.7894 282.906 99.4554C281.052 99.0076 279.451 97.8413 278.456 96.2132C277.461 94.585 277.153 92.6283 277.601 90.7736Z" fill="#FF8364"/>
<path fill-rule="evenodd" clip-rule="evenodd" d="M279.728 96.6955L274.929 109.206L281.628 107.691L285.931 111.685L286.796 98.0562" fill="#FF8364"/>
<path d="M241.622 53.2368L294.321 65.9621" stroke="#6BD5E1" stroke-width="3.11" stroke-linecap="round" stroke-linejoin="round"/>
<path d="M238.57 65.7252L270.395 73.4099" stroke="#6BD5E1" stroke-width="3.11" stroke-linecap="round" stroke-linejoin="round"/>
<path fill-rule="evenodd" clip-rule="evenodd" d="M131.743 47.6399L124.582 39.878L134.884 37.5478L145.191 35.2176L142.056 45.3097L138.922 55.3962L131.743 47.6399Z" fill="#6BD5E1"/>
<path fill-rule="evenodd" clip-rule="evenodd" d="M274.037 210.369L264.225 214.291L265.729 203.825L267.233 193.358L275.535 199.886L283.843 206.419L274.037 210.369Z" fill="#FFD98E"/>
<path d="M193.5 84.2843C193.5 83.271 193.8 82.2805 194.363 81.438C194.926 80.5955 195.727 79.9388 196.663 79.5511C197.599 79.1633 198.629 79.0619 199.623 79.2595C200.617 79.4572 201.53 79.9452 202.246 80.6616C202.963 81.3781 203.451 82.291 203.648 83.2848C203.846 84.2786 203.745 85.3087 203.357 86.2448C202.969 87.1809 202.312 87.9811 201.47 88.544C200.627 89.1069 199.637 89.4074 198.623 89.4074C197.265 89.4074 195.961 88.8677 195.001 87.9069C194.04 86.9461 193.5 85.643 193.5 84.2843Z" stroke="#FF8364" stroke-width="3.11" stroke-linecap="round" stroke-linejoin="round"/>
<path fill-rule="evenodd" clip-rule="evenodd" d="M50.3528 170.111C50.3528 169.098 50.6532 168.107 51.2162 167.265C51.7792 166.422 52.5793 165.766 53.5155 165.378C54.4517 164.99 55.4819 164.889 56.4757 165.086C57.4695 165.284 58.3825 165.772 59.099 166.488C59.8155 167.205 60.3035 168.118 60.5011 169.111C60.6988 170.105 60.5974 171.135 60.2096 172.072C59.8218 173.008 59.1651 173.808 58.3226 174.371C57.4801 174.934 56.4895 175.234 55.4762 175.234C54.1174 175.234 52.8142 174.694 51.8534 173.734C50.8925 172.773 50.3528 171.47 50.3528 170.111Z" fill="#FFD98E"/>
<path fill-rule="evenodd" clip-rule="evenodd" d="M166.269 334.245H200.53C200.53 334.245 200.689 369.639 200.53 383.565C200.53 389.311 166.28 388.655 166.28 383.565L166.269 334.245Z" fill="#D18C65"/>
<path fill-rule="evenodd" clip-rule="evenodd" d="M148.744 300.405C148.744 274.117 164.721 252.803 184.46 252.803C204.199 252.803 220.18 274.117 220.18 300.405C220.18 326.692 204.204 348.011 184.46 348.011C164.715 348.011 148.744 326.698 148.744 300.405Z" fill="#E49D75"/>
<path fill-rule="evenodd" clip-rule="evenodd" d="M203.747 249.393C194.673 270.475 157.08 291.056 141.247 295.871C138.746 283.283 154.948 229.666 203.747 249.393Z" fill="black"/>
<path fill-rule="evenodd" clip-rule="evenodd" d="M183.655 248.743C176.786 251.36 199.119 287.079 225.882 295.871C236.807 280.32 211.619 248 183.655 248.743Z" fill="black"/>
<path fill-rule="evenodd" clip-rule="evenodd" d="M234.724 9.43653C234.723 7.56861 235.276 5.74233 236.313 4.18875C237.35 2.63517 238.825 1.4241 240.551 0.708774C242.276 -0.00655439 244.175 -0.194002 246.008 0.170145C247.84 0.534293 249.523 1.43367 250.844 2.7545C252.165 4.07532 253.064 5.75824 253.428 7.59033C253.792 9.42242 253.605 11.3214 252.889 13.0469C252.174 14.7724 250.963 16.247 249.409 17.2841C247.856 18.3212 246.029 18.8742 244.161 18.8731C241.658 18.8731 239.258 17.8789 237.488 16.1092C235.718 14.3395 234.724 11.9393 234.724 9.43653Z" fill="#FFD98E"/>
<path d="M71.9593 257.568C71.9593 255.825 72.4762 254.121 73.4448 252.671C74.4133 251.222 75.79 250.092 77.4006 249.425C79.0112 248.758 80.7835 248.584 82.4934 248.924C84.2032 249.264 85.7738 250.103 87.0065 251.336C88.2393 252.568 89.0787 254.139 89.4189 255.849C89.759 257.559 89.5844 259.331 88.9173 260.941C88.2501 262.552 87.1203 263.928 85.6708 264.897C84.2213 265.865 82.5171 266.382 80.7737 266.382C78.436 266.382 76.194 265.454 74.541 263.801C72.8879 262.148 71.9593 259.906 71.9593 257.568Z" stroke="#6BD5E1" stroke-width="3.11" stroke-linecap="round" stroke-linejoin="round"/>
<path d="M267.261 253.855C267.26 252.841 267.56 251.849 268.122 251.005C268.685 250.16 269.486 249.502 270.423 249.113C271.36 248.724 272.392 248.622 273.387 248.819C274.382 249.016 275.297 249.504 276.014 250.221C276.732 250.938 277.221 251.852 277.42 252.847C277.618 253.842 277.517 254.874 277.129 255.811C276.741 256.749 276.083 257.55 275.24 258.114C274.396 258.678 273.404 258.979 272.39 258.979C271.716 258.979 271.05 258.847 270.427 258.59C269.805 258.333 269.24 257.956 268.763 257.48C268.287 257.004 267.909 256.439 267.651 255.817C267.393 255.195 267.261 254.529 267.261 253.855V253.855Z" stroke="#FF8364" stroke-width="3.11" stroke-linecap="round" stroke-linejoin="round"/>
<path d="M343.253 79.2272C372.093 114.891 390.746 154.025 386.361 188.852C382.08 223.656 354.783 254.197 325.927 296.592C297.087 339.087 266.517 393.503 222.489 407.054C178.361 420.611 120.78 393.404 75.43 350.909C30.0794 308.414 -3.041 250.837 0.220363 196.415C3.48172 141.994 43.0257 90.8452 88.3652 55.1759C133.705 19.5066 184.884 -0.666576 230.031 5.3435C275.177 11.3536 314.308 43.5579 343.253 79.2272Z" fill="url(#paint0_linear)"/>
<path fill-rule="evenodd" clip-rule="evenodd" d="M184.449 239.191C214.198 239.191 230.174 259.072 233.143 279.256C236.162 299.898 232.719 316.991 233.578 341.952C234.162 358.764 241.561 369.986 246.304 384.975C251.048 399.965 124.455 403.738 125.21 389.718C125.964 375.698 135.021 361.348 135.346 343.891C135.677 326.097 133.143 315.41 133.49 286.462C133.749 263.6 154.689 239.191 184.449 239.191Z" fill="black"/>
<path fill-rule="evenodd" clip-rule="evenodd" d="M62.3019 489.73C61.1615 475.661 67.4363 425.487 86.8337 388.027C159.283 347.907 250.183 367.011 286.124 388.027C298.293 400.389 307.091 482.508 304.43 488.403" fill="#FFD98E"/>
<path d="M104.121 488.419C105.261 479.291 107.068 464.583 110.016 450.959" stroke="#FF8364" stroke-width="5.73" stroke-linecap="round" stroke-linejoin="round"/>
<path d="M264.804 488.419C263.663 479.291 261.856 464.583 258.909 450.959" stroke="#FF8364" stroke-width="5.73" stroke-linecap="round" stroke-linejoin="round"/>
<path fill-rule="evenodd" clip-rule="evenodd" d="M138.465 304.338C138.463 302.744 138.935 301.186 139.819 299.86C140.703 298.535 141.961 297.501 143.432 296.89C144.904 296.278 146.524 296.117 148.087 296.426C149.651 296.735 151.087 297.5 152.216 298.626C153.344 299.751 154.113 301.185 154.427 302.748C154.74 304.31 154.583 305.93 153.976 307.404C153.368 308.877 152.338 310.137 151.015 311.025C149.691 311.913 148.134 312.388 146.541 312.392C145.481 312.394 144.432 312.187 143.453 311.783C142.473 311.38 141.583 310.787 140.833 310.039C140.083 309.291 139.488 308.402 139.081 307.424C138.675 306.446 138.465 305.397 138.465 304.338Z" fill="#D18C65"/>
<path fill-rule="evenodd" clip-rule="evenodd" d="M212.374 304.338C212.373 302.744 212.845 301.185 213.73 299.859C214.615 298.533 215.873 297.499 217.346 296.888C218.818 296.277 220.439 296.117 222.003 296.427C223.567 296.737 225.003 297.505 226.131 298.631C227.259 299.758 228.027 301.194 228.338 302.758C228.65 304.321 228.49 305.942 227.881 307.415C227.271 308.888 226.238 310.147 224.912 311.033C223.587 311.919 222.028 312.392 220.434 312.392C218.297 312.392 216.248 311.543 214.737 310.033C213.225 308.523 212.375 306.474 212.374 304.338Z" fill="#D18C65"/>
<path fill-rule="evenodd" clip-rule="evenodd" d="M216.544 165.605C208.413 159.259 206.408 166.348 205.135 170.563C203.863 174.777 203.956 182.208 210.33 182.049C215.916 187.061 221.117 180.578 222.715 177.283C224.312 173.989 228.235 166.839 216.544 165.605Z" fill="#FF8364"/>
<path d="M221.921 161.082C219.117 162.068 217.542 163.412 216.649 165.748" stroke="#FFD98E" stroke-width="2.83" stroke-linecap="round" stroke-linejoin="round"/>
<path fill-rule="evenodd" clip-rule="evenodd" d="M163.52 203.23C163.519 201.363 164.071 199.538 165.107 197.985C166.143 196.432 167.616 195.221 169.34 194.505C171.064 193.788 172.961 193.599 174.793 193.961C176.624 194.323 178.307 195.22 179.629 196.538C180.951 197.856 181.853 199.536 182.22 201.367C182.587 203.197 182.404 205.095 181.693 206.821C180.982 208.547 179.775 210.024 178.225 211.064C176.675 212.104 174.851 212.662 172.984 212.666C171.743 212.67 170.513 212.428 169.364 211.956C168.216 211.483 167.173 210.789 166.294 209.912C165.414 209.035 164.717 207.994 164.241 206.847C163.765 205.701 163.52 204.471 163.52 203.23Z" fill="#6BD5E1"/>
<path fill-rule="evenodd" clip-rule="evenodd" d="M98.1328 207.394L124.284 200.756L134.878 242.502L108.732 249.14L98.1328 207.394Z" fill="#DFDFDF"/>
<path fill-rule="evenodd" clip-rule="evenodd" d="M103.642 211.994L121.634 207.427L123.023 212.898L105.03 217.464L103.642 211.994Z" fill="#FF8364"/>
<path d="M106.54 223.408L124.532 218.836" stroke="#6BD5E1" stroke-width="3.11" stroke-linecap="round" stroke-linejoin="round"/>
<path d="M108.049 229.347L126.047 224.758" stroke="#6BD5E1" stroke-width="3.11" stroke-linecap="round" stroke-linejoin="round"/>
<path d="M109.63 235.539L127.639 230.966" stroke="#6BD5E1" stroke-width="3.11" stroke-linecap="round" stroke-linejoin="round"/>
<path d="M111.14 241.527L118.202 239.736" stroke="#6BD5E1" stroke-width="3.11" stroke-linecap="round" stroke-linejoin="round"/>
<path d="M126.317 237.671L129.149 236.954" stroke="#6BD5E1" stroke-width="3.11" stroke-linecap="round" stroke-linejoin="round"/>
<path fill-rule="evenodd" clip-rule="evenodd" d="M80.7958 112.616L148.469 80.3895L169.618 124.801L101.945 157L80.7958 112.616Z" fill="#DFDFDF"/>
<path d="M104.198 147.2L110.93 127.501L123.474 129.836L128.4 105.537L140.519 107.553L144.045 90.4155" stroke="#FF8364" stroke-width="3.11" stroke-linecap="round" stroke-linejoin="round"/>
<path fill-rule="evenodd" clip-rule="evenodd" d="M108.556 128.79C108.259 128.166 108.154 127.468 108.254 126.785C108.353 126.101 108.653 125.463 109.116 124.95C109.579 124.437 110.183 124.072 110.853 123.903C111.522 123.734 112.227 123.766 112.878 123.998C113.529 124.229 114.097 124.648 114.51 125.201C114.923 125.755 115.162 126.419 115.198 127.109C115.233 127.799 115.064 128.483 114.71 129.077C114.356 129.67 113.835 130.145 113.211 130.442C112.374 130.839 111.415 130.888 110.542 130.578C109.669 130.268 108.955 129.625 108.556 128.79Z" fill="#FFD98E"/>
<path fill-rule="evenodd" clip-rule="evenodd" d="M125.414 107.619C125.117 106.996 125.012 106.298 125.111 105.614C125.211 104.931 125.511 104.292 125.974 103.779C126.436 103.266 127.041 102.902 127.71 102.733C128.38 102.563 129.085 102.596 129.736 102.827C130.387 103.058 130.955 103.477 131.368 104.031C131.781 104.585 132.02 105.249 132.056 105.939C132.091 106.628 131.921 107.313 131.568 107.907C131.214 108.5 130.692 108.975 130.069 109.272C129.655 109.47 129.206 109.584 128.747 109.608C128.289 109.632 127.831 109.566 127.398 109.412C126.966 109.259 126.568 109.021 126.227 108.714C125.887 108.406 125.61 108.034 125.414 107.619Z" fill="#FFD98E"/>
<path fill-rule="evenodd" clip-rule="evenodd" d="M253.604 145.068C253.599 142.702 254.297 140.388 255.609 138.418C256.921 136.449 258.788 134.914 260.973 134.006C263.159 133.099 265.564 132.86 267.885 133.321C270.206 133.781 272.338 134.92 274.012 136.593C275.685 138.266 276.824 140.398 277.284 142.719C277.745 145.04 277.506 147.446 276.599 149.631C275.691 151.816 274.156 153.683 272.186 154.995C270.217 156.307 267.903 157.004 265.536 157C262.373 156.994 259.342 155.735 257.105 153.499C254.869 151.262 253.61 148.231 253.604 145.068Z" fill="#FFD98E"/>
<path d="M285.738 142.986C286.085 144.204 286.259 145.465 286.256 146.732C286.257 148.765 285.807 150.772 284.938 152.61C284.069 154.448 282.804 156.071 281.232 157.36C279.661 158.65 277.823 159.576 275.851 160.07C273.879 160.564 271.822 160.614 269.828 160.217" stroke="#FF8364" stroke-width="3.11" stroke-linecap="round" stroke-linejoin="round"/>
<path fill-rule="evenodd" clip-rule="evenodd" d="M258.309 154.147L253.725 162.349L272.649 165.395L270.577 155.816" fill="#FFD98E"/>
<path fill-rule="evenodd" clip-rule="evenodd" d="M262.738 145.068C262.738 144.51 262.903 143.965 263.213 143.501C263.523 143.037 263.964 142.676 264.479 142.462C264.994 142.249 265.562 142.193 266.109 142.302C266.656 142.411 267.158 142.679 267.553 143.074C267.947 143.468 268.216 143.971 268.325 144.518C268.434 145.065 268.378 145.632 268.164 146.147C267.951 146.663 267.589 147.103 267.125 147.413C266.662 147.723 266.116 147.889 265.558 147.889C264.81 147.889 264.093 147.591 263.564 147.062C263.035 146.534 262.738 145.816 262.738 145.068Z" fill="#1B3C87"/>
<path fill-rule="evenodd" clip-rule="evenodd" d="M282.157 142.248C282.157 141.69 282.323 141.144 282.633 140.681C282.943 140.217 283.383 139.855 283.898 139.642C284.414 139.428 284.981 139.372 285.528 139.481C286.075 139.59 286.578 139.859 286.972 140.253C287.367 140.648 287.636 141.15 287.744 141.697C287.853 142.244 287.797 142.812 287.584 143.327C287.37 143.842 287.009 144.283 286.545 144.593C286.081 144.903 285.536 145.068 284.978 145.068C284.23 145.068 283.512 144.771 282.983 144.242C282.454 143.713 282.157 142.996 282.157 142.248Z" fill="#FFD98E"/>
<path fill-rule="evenodd" clip-rule="evenodd" d="M55.5919 55.2034L73.2704 59.985L55.8618 124.438L38.1667 119.662L55.5919 55.2034Z" fill="#FF8364"/>
<path d="M43.8025 98.8715L53.537 101.499" stroke="#FFD98E" stroke-width="4.23" stroke-linecap="round" stroke-linejoin="round"/>
<path d="M40.7119 110.302L50.4519 112.93" stroke="#FFD98E" stroke-width="4.23" stroke-linecap="round" stroke-linejoin="round"/>
<path d="M46.8876 87.4408L56.6276 90.0685" stroke="#FFD98E" stroke-width="4.23" stroke-linecap="round" stroke-linejoin="round"/>
<path d="M49.9781 76.0211L59.7127 78.6488" stroke="#FFD98E" stroke-width="4.23" stroke-linecap="round" stroke-linejoin="round"/>
<path d="M53.0632 64.5739L62.8032 67.207" stroke="#FFD98E" stroke-width="4.23" stroke-linecap="round" stroke-linejoin="round"/>
<path fill-rule="evenodd" clip-rule="evenodd" d="M237.677 41.8667L304.43 57.9578L293.412 103.466L226.687 87.3471L237.677 41.8667Z" fill="#DFDFDF"/>
<path fill-rule="evenodd" clip-rule="evenodd" d="M277.601 91.1812C277.935 89.798 278.672 88.5449 279.718 87.5803C280.764 86.6158 282.073 85.9831 283.479 85.7623C284.884 85.5415 286.324 85.7424 287.616 86.3398C288.907 86.9372 289.993 87.9041 290.735 89.1183C291.476 90.3325 291.842 91.7395 291.784 93.1613C291.726 94.583 291.248 95.9558 290.41 97.1059C289.572 98.256 288.412 99.1318 287.077 99.6226C285.741 100.113 284.29 100.197 282.906 99.8631C281.052 99.4152 279.451 98.2489 278.456 96.6208C277.461 94.9927 277.153 93.036 277.601 91.1812Z" fill="#FF8364"/>
<path fill-rule="evenodd" clip-rule="evenodd" d="M279.728 97.1087L274.929 109.625L281.628 108.104L285.931 112.098L286.796 98.4639" fill="#FF8364"/>
<path d="M241.622 53.65L294.321 66.3752" stroke="#6BD5E1" stroke-width="3.11" stroke-linecap="round" stroke-linejoin="round"/>
<path d="M238.57 66.1383L270.395 73.8176" stroke="#6BD5E1" stroke-width="3.11" stroke-linecap="round" stroke-linejoin="round"/>
<path fill-rule="evenodd" clip-rule="evenodd" d="M131.743 48.0475L124.582 40.2912L134.884 37.961L145.191 35.6307L142.051 45.7228L138.916 55.8149L131.743 48.0475Z" fill="#6BD5E1"/>
<path fill-rule="evenodd" clip-rule="evenodd" d="M274.037 210.777L264.225 214.704L265.729 204.238L267.233 193.771L275.535 200.299L283.843 206.827L274.037 210.777Z" fill="#FFD98E"/>
<path d="M193.5 84.7029C193.5 83.6897 193.8 82.6992 194.363 81.8567C194.926 81.0142 195.727 80.3575 196.663 79.9698C197.599 79.582 198.629 79.4805 199.623 79.6782C200.617 79.8759 201.53 80.3638 202.246 81.0803C202.963 81.7968 203.451 82.7097 203.648 83.7035C203.846 84.6972 203.745 85.7273 203.357 86.6635C202.969 87.5996 202.312 88.3997 201.47 88.9627C200.627 89.5256 199.637 89.8261 198.623 89.8261C197.265 89.8261 195.961 89.2863 195.001 88.3255C194.04 87.3648 193.5 86.0617 193.5 84.7029Z" stroke="#FF8364" stroke-width="3.11" stroke-linecap="round" stroke-linejoin="round"/>
<path fill-rule="evenodd" clip-rule="evenodd" d="M50.3528 170.519C50.3528 169.505 50.6532 168.515 51.2162 167.672C51.7792 166.83 52.5793 166.173 53.5155 165.785C54.4517 165.398 55.4819 165.296 56.4757 165.494C57.4695 165.692 58.3825 166.18 59.099 166.896C59.8155 167.612 60.3035 168.525 60.5011 169.519C60.6988 170.513 60.5974 171.543 60.2096 172.479C59.8218 173.415 59.1651 174.215 58.3226 174.778C57.4801 175.341 56.4895 175.642 55.4762 175.642C54.1174 175.642 52.8142 175.102 51.8534 174.141C50.8925 173.18 50.3528 171.877 50.3528 170.519Z" fill="#FFD98E"/>
<path fill-rule="evenodd" clip-rule="evenodd" d="M166.269 334.653H200.53C200.53 334.653 200.689 370.046 200.53 383.978C200.53 389.724 166.28 389.063 166.28 383.978L166.269 334.653Z" fill="#D18C65"/>
<path fill-rule="evenodd" clip-rule="evenodd" d="M148.744 300.818C148.744 274.524 164.721 253.216 184.46 253.216C204.199 253.216 220.18 274.524 220.18 300.818C220.18 327.111 204.204 348.419 184.46 348.419C164.715 348.419 148.744 327.106 148.744 300.818Z" fill="#E49D75"/>
<path fill-rule="evenodd" clip-rule="evenodd" d="M203.747 249.801C194.673 270.883 157.08 291.469 141.247 296.284C138.746 283.702 154.948 230.08 203.747 249.801Z" fill="black"/>
<path fill-rule="evenodd" clip-rule="evenodd" d="M183.655 249.151C176.786 251.751 199.119 287.486 225.871 296.284C236.807 280.727 211.619 248.413 183.655 249.151Z" fill="black"/>
<path fill-rule="evenodd" clip-rule="evenodd" d="M234.724 9.8497C234.722 7.98153 235.274 6.15471 236.311 4.60041C237.347 3.04611 238.821 1.83418 240.547 1.11801C242.272 0.401838 244.172 0.213603 246.004 0.577128C247.837 0.940653 249.52 1.8396 250.842 3.1602C252.163 4.48081 253.063 6.16371 253.428 7.99595C253.792 9.82819 253.605 11.7274 252.89 13.4533C252.175 15.1791 250.964 16.654 249.41 17.6914C247.856 18.7287 246.03 19.2818 244.161 19.2807C241.659 19.2807 239.26 18.2873 237.49 16.5188C235.721 14.7503 234.726 12.3515 234.724 9.8497Z" fill="#FFD98E"/>
<path d="M71.9593 257.976C71.9593 256.233 72.4762 254.529 73.4448 253.079C74.4133 251.63 75.79 250.5 77.4006 249.833C79.0112 249.166 80.7835 248.991 82.4934 249.331C84.2032 249.671 85.7738 250.511 87.0065 251.744C88.2393 252.976 89.0787 254.547 89.4189 256.256C89.759 257.966 89.5844 259.738 88.9173 261.349C88.2501 262.96 87.1203 264.336 85.6708 265.305C84.2213 266.273 82.5171 266.79 80.7737 266.79C78.436 266.79 76.194 265.861 74.541 264.208C72.8879 262.555 71.9593 260.314 71.9593 257.976Z" stroke="#6BD5E1" stroke-width="3.11" stroke-linecap="round" stroke-linejoin="round"/>
<path d="M267.261 254.263C267.26 253.248 267.56 252.256 268.122 251.412C268.685 250.568 269.486 249.91 270.423 249.521C271.36 249.132 272.392 249.029 273.387 249.227C274.382 249.424 275.297 249.912 276.014 250.629C276.732 251.346 277.221 252.26 277.42 253.255C277.618 254.25 277.517 255.281 277.129 256.219C276.741 257.156 276.083 257.958 275.24 258.521C274.396 259.085 273.404 259.386 272.39 259.386C271.716 259.387 271.05 259.255 270.427 258.998C269.805 258.741 269.24 258.363 268.763 257.888C268.287 257.412 267.909 256.847 267.651 256.225C267.393 255.603 267.261 254.936 267.261 254.263V254.263Z" stroke="#FF8364" stroke-width="3.11" stroke-linecap="round" stroke-linejoin="round"/>
</g>
<defs>
<linearGradient id="paint0_linear" x1="74.7614" y1="51.6367" x2="299.896" y2="478.046" gradientUnits="userSpaceOnUse">
<stop stop-color="#94E7BD"/>
<stop offset="1" stop-color="#52EE9D"/>
</linearGradient>
<clipPath id="clip0">
<rect width="387" height="490" fill="white"/>
</clipPath>
</defs>
</svg>
